HIERARCHY
ROOT Hips
{
  OFFSET 0 96.8 0
  CHANNELS 6 Xposition Yposition Zposition Zrotation Xrotation Yrotation
  JOINT Spine
  {
    OFFSET 0 12.3689 -3.99218
    CHANNELS 3 Zrotation Xrotation Yrotation
    JOINT Spine1
    {
      OFFSET 0 14.0303 0
      CHANNELS 3 Zrotation Xrotation Yrotation
      JOINT Spine2
      {
        OFFSET 0 5.60109 0
        CHANNELS 3 Zrotation Xrotation Yrotation
        JOINT Neck
        {
          OFFSET 0 23.8357 -5.66956
          CHANNELS 3 Zrotation Xrotation Yrotation
          JOINT Head
          {
            OFFSET 0 9.08726 0
            CHANNELS 3 Zrotation Xrotation Yrotation
            End Site
            {
              OFFSET 0 19.5091 9.42096
            }
          }
        }
        JOINT RightShoulder
        {
          OFFSET -6.92539 12.7236 -3.42068
          CHANNELS 3 Zrotation Xrotation Yrotation
          JOINT RightArm
          {
            OFFSET 0 11.9164 0
            CHANNELS 3 Zrotation Xrotation Yrotation
            JOINT RightForeArm
            {
              OFFSET -1.03322e-05 25.7 1.48965e-05
              CHANNELS 3 Zrotation Xrotation Yrotation
              JOINT RightHand
              {
                OFFSET -1.0694e-05 26.6 1.54182e-05
                CHANNELS 3 Zrotation Xrotation Yrotation
                JOINT RightHandThumb1
                {
                  OFFSET 2.51819 2.31438 1.47793
                  CHANNELS 3 Zrotation Xrotation Yrotation
                  JOINT RightHandThumb2
                  {
                    OFFSET 0 3.93334 0
                    CHANNELS 3 Zrotation Xrotation Yrotation
                    JOINT RightHandThumb3
                    {
                      OFFSET 0 3.20778 0
                      CHANNELS 3 Zrotation Xrotation Yrotation
                      End Site
                      {
                        OFFSET 0 2.41783 0
                      }
                    }
                  }
                }
                JOINT RightHandIndex1
                {
                  OFFSET 0 8.70165 0
                  CHANNELS 3 Zrotation Xrotation Yrotation
                  JOINT RightHandIndex2
                  {
                    OFFSET 0 3.42558 0
                    CHANNELS 3 Zrotation Xrotation Yrotation
                    JOINT RightHandIndex3
                    {
                      OFFSET 0 2.63863 0
                      CHANNELS 3 Zrotation Xrotation Yrotation
                      End Site
                      {
                        OFFSET 0 2.56659 0
                      }
                    }
                  }
                }
                JOINT RightHandMiddle1
                {
                  OFFSET -2.22417e-05 8.95076 3.74234e-05
                  CHANNELS 3 Zrotation Xrotation Yrotation
                  JOINT RightHandMiddle2
                  {
                    OFFSET 0 3.4742 0
                    CHANNELS 3 Zrotation Xrotation Yrotation
                    JOINT RightHandMiddle3
                    {
                      OFFSET 0 2.76997 0
                      CHANNELS 3 Zrotation Xrotation Yrotation
                      End Site
                      {
                        OFFSET 0 2.7668 0
                      }
                    }
                  }
                }
                JOINT RightHandRing1
                {
                  OFFSET -1.75131 8.54802 0.0404412
                  CHANNELS 3 Zrotation Xrotation Yrotation
                  JOINT RightHandRing2
                  {
                    OFFSET 0 3.17304 0
                    CHANNELS 3 Zrotation Xrotation Yrotation
                    JOINT RightHandRing3
                    {
                      OFFSET 0 2.71333 0
                      CHANNELS 3 Zrotation Xrotation Yrotation
                      End Site
                      {
                        OFFSET 0 2.47778 0
                      }
                    }
                  }
                }
                JOINT RightHandPinky1
                {
                  OFFSET -3.57399 7.58378 0.457001
                  CHANNELS 3 Zrotation Xrotation Yrotation
                  JOINT RightHandPinky2
                  {
                    OFFSET 0 3.3803 0
                    CHANNELS 3 Zrotation Xrotation Yrotation
                    JOINT RightHandPinky3
                    {
                      OFFSET 0 1.97184 0
                      CHANNELS 3 Zrotation Xrotation Yrotation
                      End Site
                      {
                        OFFSET 0 1.98666 0
                      }
                    }
                  }
                }
              }
            }
          }
        }
        JOINT LeftShoulder
        {
          OFFSET 6.92539 12.7236 -3.42068
          CHANNELS 3 Zrotation Xrotation Yrotation
          JOINT LeftArm
          {
            OFFSET 0 11.9164 0
            CHANNELS 3 Zrotation Xrotation Yrotation
            JOINT LeftForeArm
            {
              OFFSET 0 25.7 0
              CHANNELS 3 Zrotation Xrotation Yrotation
              JOINT LeftHand
              {
                OFFSET 0 26.6 0
                CHANNELS 3 Zrotation Xrotation Yrotation
                JOINT LeftHandThumb1
                {
                  OFFSET -2.51807 2.31564 1.48
                  CHANNELS 3 Zrotation Xrotation Yrotation
                  JOINT LeftHandThumb2
                  {
                    OFFSET 0 3.93157 0
                    CHANNELS 3 Zrotation Xrotation Yrotation
                    JOINT LeftHandThumb3
                    {
                      OFFSET 0 3.20977 0
                      CHANNELS 3 Zrotation Xrotation Yrotation
                      End Site
                      {
                        OFFSET 0 2.4231 0
                      }
                    }
                  }
                }
                JOINT LeftHandIndex1
                {
                  OFFSET 0 8.70165 0
                  CHANNELS 3 Zrotation Xrotation Yrotation
                  JOINT LeftHandIndex2
                  {
                    OFFSET 0 3.42522 0
                    CHANNELS 3 Zrotation Xrotation Yrotation
                    JOINT LeftHandIndex3
                    {
                      OFFSET 0 2.63834 0
                      CHANNELS 3 Zrotation Xrotation Yrotation
                      End Site
                      {
                        OFFSET 0 2.56879 0
                      }
                    }
                  }
                }
                JOINT LeftHandMiddle1
                {
                  OFFSET -3.43705e-05 8.9516 -3.05546e-05
                  CHANNELS 3 Zrotation Xrotation Yrotation
                  JOINT LeftHandMiddle2
                  {
                    OFFSET 0 3.4742 0
                    CHANNELS 3 Zrotation Xrotation Yrotation
                    JOINT LeftHandMiddle3
                    {
                      OFFSET 0 2.76997 0
                      CHANNELS 3 Zrotation Xrotation Yrotation
                      End Site
                      {
                        OFFSET 0 2.77266 0
                      }
                    }
                  }
                }
                JOINT LeftHandRing1
                {
                  OFFSET 1.75126 8.5489 0.0404023
                  CHANNELS 3 Zrotation Xrotation Yrotation
                  JOINT LeftHandRing2
                  {
                    OFFSET 0 2.95776 0
                    CHANNELS 3 Zrotation Xrotation Yrotation
                    JOINT LeftHandRing3
                    {
                      OFFSET 0 2.76997 0
                      CHANNELS 3 Zrotation Xrotation Yrotation
                      End Site
                      {
                        OFFSET -2.1854e-05 2.48294 0
                      }
                    }
                  }
                }
                JOINT LeftHandPinky1
                {
                  OFFSET 3.57398 7.58481 0.457164
                  CHANNELS 3 Zrotation Xrotation Yrotation
                  JOINT LeftHandPinky2
                  {
                    OFFSET 0 3.3803 0
                    CHANNELS 3 Zrotation Xrotation Yrotation
                    JOINT LeftHandPinky3
                    {
                      OFFSET 0 1.97184 0
                      CHANNELS 3 Zrotation Xrotation Yrotation
                      End Site
                      {
                        OFFSET 0 1.99582 0
                      }
                    }
                  }
                }
              }
            }
          }
        }
      }
    }
  }
  JOINT RightUpLeg
  {
    OFFSET -8.5 -8.19964 0.08092
    CHANNELS 3 Zrotation Xrotation Yrotation
    JOINT RightLeg
    {
      OFFSET 0 42.9009 0
      CHANNELS 3 Zrotation Xrotation Yrotation
      JOINT RightFoot
      {
        OFFSET 0 38.0864 0
        CHANNELS 3 Zrotation Xrotation Yrotation
        JOINT RightToe
        {
          OFFSET 0 14.087 0
          CHANNELS 3 Zrotation Xrotation Yrotation
          End Site
          {
            OFFSET 0 9.45955 0
          }
        }
      }
    }
  }
  JOINT LeftUpLeg
  {
    OFFSET 8.5 -8.19964 0.08092
    CHANNELS 3 Zrotation Xrotation Yrotation
    JOINT LeftLeg
    {
      OFFSET 0 42.9009 0
      CHANNELS 3 Zrotation Xrotation Yrotation
      JOINT LeftFoot
      {
        OFFSET 0 38.0864 0
        CHANNELS 3 Zrotation Xrotation Yrotation
        JOINT LeftToe
        {
          OFFSET 0 14.087 0
          CHANNELS 3 Zrotation Xrotation Yrotation
          End Site
          {
            OFFSET 0 9.45957 0
          }
        }
      }
    }
  }
}
MOTION
Frames:	4
Frame Time:	0.0166667
-33.108 94.5166 -146.847 -5.96458 8.07086 35.3603 -0.404669 8.66031 1.29515 -0.260025 -9.95102 1.4469 -0.215286 0.14397 1.06011 3.86186e-06 29.2987 -9.90584e-06 -3.18055e-15 3.18055e-15 -9.54166e-15 62.1932 12.7778 -79.8153 -68.3301 12.0409 39.2202 -22.2149 0.377065 -15.8893 -18.5063 22.8571 -2.336 -30.9004 26.556 14.9798 1.06543 -0.266601 -0.131651 0.7928 -0.191401 -0.091243 -0.0188237 -6.94349e-05 7.95139e-16 0.0292947 4.37326e-15 -7.95139e-16 -0.0100751 -2.38542e-15 7.95139e-16 -0.0575027 -0.000112091 1.59028e-15 0.0973881 -2.78299e-15 -2.38542e-15 -0.0368804 -1.59028e-15 -1.59028e-15 0.0178567 7.9792e-06 1.59028e-15 -0.0253838 1.59028e-15 -1.59028e-15 -0.0129265 -3.57812e-15 -0 0.0596292 0.000535225 7.95139e-16 0.096971 -2.38542e-15 7.95139e-16 -0.0569265 4.77083e-15 -7.95139e-16 -62.1891 12.7776 79.8154 78.8065 7.02869 -42.8137 -9.08449 -6.4032 10.0454 -6.29707 24.8994 18.0779 30.7775 26.5578 -14.9111 -0.940956 -0.237838 0.117539 -0.695804 -0.175996 0.084333 -0.0050508 7.6384e-05 -0 0.0120434 3.90438e-05 -0 -0.00759159 3.83596e-05 -3.18055e-15 -0.00362641 4.68076e-05 -0 0.0024289 -1.87453e-05 6.36111e-15 0.00237084 -4.89982e-05 3.18055e-15 0.000723448 7.16082e-05 -0 3.18055e-15 -3.18055e-15 -0 0 0 -3.18055e-15 0.234317 -0.000570151 2.33218e-06 -0.0241399 7.20261e-05 -0 -0.00768704 1.21015e-05 -0 175.897 28.0749 -4.62645 -0.113734 -16.5974 -2.08578 11.2773 61.2973 -8.43147 -1.55001e-05 39.1744 5.51545e-06 -159.177 19.5359 -45.3673 2.4373 -20.3505 13.2271 -13.3885 66.559 10.7692 -1.59485e-05 39.1744 5.46156e-06
-33.0778 94.4145 -146.761 -6.23228 8.39286 35.2785 -0.436654 8.6686 1.31141 -0.295168 -9.94131 1.45929 -0.240388 0.150974 1.0726 3.86186e-06 29.2987 -9.90584e-06 -3.18055e-15 6.36111e-15 -6.36111e-15 62.1228 12.773 -79.8179 -68.1923 11.8216 39.1915 -22.4454 0.169996 -15.6713 -18.4863 22.7893 -2.28035 -30.9004 26.556 14.9798 1.06543 -0.266601 -0.131651 0.7928 -0.191401 -0.091243 -0.0188237 -6.94349e-05 -0 0.0292947 4.37326e-15 7.95139e-16 -0.0100751 1.59028e-15 -7.95139e-16 -0.0575027 -0.000112091 -2.38542e-15 0.0973881 -6.36111e-15 3.18055e-15 -0.0368804 1.59028e-15 -3.18055e-15 0.0178567 7.9792e-06 7.95139e-16 -0.0253838 0 7.95139e-16 -0.0129265 4.37326e-15 -1.59028e-15 0.0596292 0.000535225 -1.59028e-15 0.096971 5.96354e-15 -7.95139e-16 -0.0569265 -2.38542e-15 -0 -62.1003 12.7715 79.8187 78.5669 6.735 -42.5526 -8.71349 -6.48061 9.67897 -6.15402 24.8392 17.8842 30.7775 26.5578 -14.9111 -0.940956 -0.237838 0.117539 -0.695804 -0.175996 0.084333 -0.0050508 7.6384e-05 -3.18055e-15 0.0120434 3.90438e-05 3.18055e-15 -0.00759159 3.83596e-05 -0 -0.00362641 4.68076e-05 -0 0.0024289 -1.87453e-05 -0 0.00237084 -4.89982e-05 3.18055e-15 0.000723448 7.16082e-05 -0 3.18055e-15 -3.18055e-15 -0 6.36111e-15 3.18055e-15 3.18055e-15 0.234317 -0.000570151 2.33218e-06 -0.0241399 7.20261e-05 3.18055e-15 -0.00768704 1.21015e-05 -3.18055e-15 175.977 29.133 -4.7386 0.118616 -17.1914 -2.04794 11.1065 60.621 -8.23008 -1.55001e-05 39.1744 5.51545e-06 -159.017 19.8073 -45.1965 2.23043 -20.0874 12.891 -13.0589 65.7292 10.3323 -1.59485e-05 39.1744 5.46156e-06
-33.4912 94.1118 -146.842 -6.51112 8.70951 35.2807 -0.45339 8.68941 1.29536 -0.317734 -9.91712 1.43664 -0.255797 0.16832 1.05876 3.86186e-06 29.2987 -9.90584e-06 -3.18055e-15 6.36111e-15 -1.59028e-14 62.0746 12.7697 -79.8197 -68.0657 11.5367 39 -22.6892 -0.0686534 -15.4521 -18.5051 22.5729 -2.125 -30.9004 26.556 14.9798 1.06543 -0.266601 -0.131651 0.7928 -0.191401 -0.091243 -0.0188237 -6.94349e-05 2.38542e-15 0.0292947 -8.74653e-15 -7.95139e-16 -0.0100751 -1.07344e-14 7.95139e-16 -0.0575027 -0.000112091 -0 0.0973881 1.59028e-15 -0 -0.0368804 -3.97569e-15 -2.38542e-15 0.0178567 7.9792e-06 1.59028e-15 -0.0253838 1.19271e-15 -0 -0.0129265 -7.95139e-16 -7.95139e-16 0.0596292 0.000535225 1.59028e-15 0.096971 -2.78299e-15 -7.95139e-16 -0.0569265 -3.18055e-15 -0 -62.0244 12.7663 79.8216 78.2966 6.34668 -42.1356 -8.37847 -6.54413 9.22098 -6.03773 24.6589 17.6323 30.7775 26.5578 -14.9111 -0.940956 -0.237838 0.117539 -0.695804 -0.175996 0.084333 -0.0050508 7.6384e-05 -6.36111e-15 0.0120434 3.90438e-05 -0 -0.00759159 3.83596e-05 -3.18055e-15 -0.00362641 4.68076e-05 -3.18055e-15 0.0024289 -1.87453e-05 -0 0.00237084 -4.89982e-05 -0 0.000723448 7.16082e-05 -3.18055e-15 6.36111e-15 0 -0 -0 -3.18055e-15 -0 0.234317 -0.000570151 2.33218e-06 -0.0241399 7.20261e-05 6.36111e-15 -0.00768704 1.21015e-05 6.36111e-15 176.077 30.5484 -4.64391 0.403824 -18.0483 -2.23312 10.9092 59.9111 -8.02732 -1.55001e-05 39.1744 5.51545e-06 -158.848 20.0168 -44.9261 1.91564 -19.6581 12.3999 -12.671 64.7272 9.8268 -1.59485e-05 39.1744 5.46156e-06
-33.9706 93.6609 -146.906 -6.82988 9.0403 35.3071 -0.472988 8.7347 1.27654 -0.344172 -9.86437 1.41003 -0.273807 0.206063 1.04248 3.86186e-06 29.2987 -9.90584e-06 0 1.59028e-14 -0 62.0229 12.7662 -79.8216 -67.8873 11.156 38.6761 -22.9101 -0.294346 -15.2572 -18.5559 22.2728 -1.98989 -30.9004 26.556 14.9798 1.06543 -0.266601 -0.131651 0.7928 -0.191401 -0.091243 -0.0188237 -6.94349e-05 -0 0.0292947 -2.78299e-15 1.59028e-15 -0.0100751 1.19271e-15 2.38542e-15 -0.0575027 -0.000112091 -2.38542e-15 0.0973881 -5.76476e-15 -3.18055e-15 -0.0368804 -5.1684e-15 1.59028e-15 0.0178567 7.9792e-06 -0 -0.0253838 7.55382e-15 2.38542e-15 -0.0129265 1.39149e-15 -2.38542e-15 0.0596292 0.000535225 -7.95139e-16 0.096971 7.95139e-15 7.95139e-16 -0.0569265 -8.74653e-15 1.59028e-15 -61.9097 12.7584 79.8258 78.001 5.81059 -41.6178 -8.08782 -6.64899 8.8031 -5.89903 24.3693 17.2001 30.7775 26.5578 -14.9111 -0.940956 -0.237838 0.117539 -0.695804 -0.175996 0.084333 -0.0050508 7.6384e-05 -3.18055e-15 0.0120434 3.90438e-05 3.18055e-15 -0.00759159 3.83596e-05 -0 -0.00362641 4.68076e-05 -3.18055e-15 0.0024289 -1.87453e-05 3.18055e-15 0.00237084 -4.89982e-05 6.36111e-15 0.000723448 7.16082e-05 -3.18055e-15 -3.18055e-15 1.27222e-14 3.18055e-15 -6.36111e-15 -3.18055e-15 3.18055e-15 0.234317 -0.000570151 2.33218e-06 -0.0241399 7.20261e-05 -0 -0.00768704 1.21015e-05 -3.18055e-15 176.175 32.2524 -4.53419 0.776232 -19.3829 -2.36688 10.7487 59.2523 -7.86563 -1.55001e-05 39.1744 5.51545e-06 -158.535 20.2068 -44.7246 1.40014 -19.4134 12.0193 -12.2476 63.5839 9.3047 -1.59485e-05 39.1744 5.46156e-06
